<svg id="Layer_1" data-name="Layer 1" xmlns="http://www.w3.org/2000/svg" viewBox="0 0 47.32 25.08"><defs><style>.cls-1{fill:#7090a8;}</style></defs><title>goinvo_logo</title><path class="cls-1" d="M45.09,13.79a3,3,0,0,1,.45,1.72,5.17,5.17,0,0,1-.77,2.91,2.25,2.25,0,0,1-1.86,1.15,1.4,1.4,0,0,1-1.16-.63,2.72,2.72,0,0,1-.46-1.64,5.44,5.44,0,0,1,.77-2.92,2.2,2.2,0,0,1,1.84-1.23,1.37,1.37,0,0,1,1.19.64m-4.31-.41a5.62,5.62,0,0,0-1.27,3.75A4.07,4.07,0,0,0,40.43,20,3.24,3.24,0,0,0,43,21a3.89,3.89,0,0,0,3.09-1.5,5.81,5.81,0,0,0,1.26-3.85,3.85,3.85,0,0,0-.94-2.72,3.18,3.18,0,0,0-2.48-1,3.93,3.93,0,0,0-3.12,1.5m-3-1.25-2.93,5.44-1.25-5.44H31.85l2.09,8.73h.86l4.71-8.73Zm-13.93,0L22.54,20.7h1.71l.84-5.46c0-.09.2-.31.57-.65a7.71,7.71,0,0,1,.91-.76,3.19,3.19,0,0,1,.7-.37,1.67,1.67,0,0,1,.58-.12.93.93,0,0,1,.75.35,1.53,1.53,0,0,1,.3,1,2.55,2.55,0,0,1,0,.53L28,20.7h1.71l.88-5.4a4.08,4.08,0,0,0,.06-.68,2.9,2.9,0,0,0-.59-1.88A2,2,0,0,0,28.42,12a4.12,4.12,0,0,0-3,1.68l-.05,0,.24-1.52Zm-4,0L18.55,20.7h1.74l1.28-8.57Zm.48-2a1,1,0,0,0,.71.28,1,1,0,0,0,.7-.28.85.85,0,0,0,.3-.65.87.87,0,0,0-.3-.67,1,1,0,0,0-.7-.27,1,1,0,0,0-.71.27.9.9,0,0,0-.29.67.87.87,0,0,0,.29.65M11.2,19.33a3.24,3.24,0,0,1-.58-2,5.46,5.46,0,0,1,.91-3.22,2.76,2.76,0,0,1,2.4-1.31,2.06,2.06,0,0,1,1.68.76,3.07,3.07,0,0,1,.63,2,5.13,5.13,0,0,1-1,3.21,3,3,0,0,1-2.45,1.32,1.9,1.9,0,0,1-1.58-.75m-.33-5.88a5.78,5.78,0,0,0-1.21,3.81,3.75,3.75,0,0,0,.89,2.64,3,3,0,0,0,2.27,1A4,4,0,0,0,15.9,19.4a5.62,5.62,0,0,0,1.3-3.85,3.75,3.75,0,0,0-.88-2.61A3,3,0,0,0,14,12a3.82,3.82,0,0,0-3.1,1.48M6.06,24a5.17,5.17,0,0,1-2.49.49,4.33,4.33,0,0,1-2-.38,1.1,1.1,0,0,1-.73-1c0-.62.41-1.11,1.24-1.48a5.25,5.25,0,0,1,2-.56,9.19,9.19,0,0,1,1.56.41c.87.27,1.31.68,1.31,1.23A1.45,1.45,0,0,1,6.06,24m.36-10.67a2,2,0,0,1,.71,1.55,3,3,0,0,1-.74,1.91,2.55,2.55,0,0,1-2.1.91A2.13,2.13,0,0,1,2.65,17,2.26,2.26,0,0,1,2,15.4a2.6,2.6,0,0,1,.82-1.92,2.7,2.7,0,0,1,1.92-.81,2.45,2.45,0,0,1,1.64.62M5,12a3.88,3.88,0,0,0-2.69,1,3.13,3.13,0,0,0-1.11,2.39,2.63,2.63,0,0,0,2,2.7v0c-1.25.22-1.88.65-1.88,1.28s.63,1.06,1.88,1.3v0C1.05,21.2,0,21.94,0,23a1.76,1.76,0,0,0,1,1.52,5.05,5.05,0,0,0,2.72.61,5.37,5.37,0,0,0,3-.72,2.06,2.06,0,0,0,1.07-1.74,1.65,1.65,0,0,0-.68-1.34,6.59,6.59,0,0,0-2.49-1,20.49,20.49,0,0,1-2.15-.55.48.48,0,0,1-.34-.46.61.61,0,0,1,.35-.52,5.12,5.12,0,0,1,1.61-.38,9.08,9.08,0,0,0,2-.45,3,3,0,0,0,1.34-1.11A3.1,3.1,0,0,0,8,15a2.49,2.49,0,0,0-1.34-2.32v0H9.25L9.36,12Z"/><path class="cls-1" d="M17.85,9.06a3,3,0,0,1,.2-.66L11,7.61c0,.22-.09.43-.11.64a7.2,7.2,0,0,0-.07.8l7.06.78a3.28,3.28,0,0,1,0-.77"/><path class="cls-1" d="M19,7.17a3,3,0,0,1,.64-.34L15.31,1.69c-.21.13-.41.27-.62.42s-.4.31-.59.47l4.35,5.15A3,3,0,0,1,19,7.17"/><path class="cls-1" d="M21.27,6.6a3.21,3.21,0,0,1,.71.18L22.83.17C22.55.12,22.26.07,22,0l-.68,0-.84,6.62a3.7,3.7,0,0,1,.82,0"/><path class="cls-1" d="M23.3,7.69a3.06,3.06,0,0,1,.37.59l5.62-4.13c-.15-.2-.31-.41-.49-.61s-.31-.35-.47-.51L22.7,7.16a2.72,2.72,0,0,1,.6.53"/></svg>